<svg width="30" height="30" viewBox="0 0 30 30" fill="none" xmlns="http://www.w3.org/2000/svg">
<g style="mix-blend-mode:exclusion">
<rect width="30" height="30" fill="black"/>
<path d="M24.1003 22.7742C24.1874 22.8613 24.2565 22.9647 24.3037 23.0785C24.3508 23.1923 24.3751 23.3143 24.3751 23.4375C24.3751 23.5607 24.3508 23.6826 24.3037 23.7964C24.2565 23.9102 24.1874 24.0137 24.1003 24.1008C24.0132 24.1879 23.9098 24.257 23.796 24.3041C23.6822 24.3512 23.5602 24.3755 23.437 24.3755C23.3139 24.3755 23.1919 24.3512 23.0781 24.3041C22.9643 24.257 22.8609 24.1879 22.7738 24.1008L14.9995 16.3254L7.22533 24.1008C7.04941 24.2767 6.81082 24.3755 6.56204 24.3755C6.31327 24.3755 6.07468 24.2767 5.89876 24.1008C5.72285 23.9248 5.62402 23.6863 5.62402 23.4375C5.62402 23.1887 5.72285 22.9501 5.89876 22.7742L13.6742 15L5.89876 7.22575C5.72285 7.04984 5.62402 6.81125 5.62402 6.56247C5.62402 6.31369 5.72285 6.0751 5.89876 5.89919C6.07468 5.72328 6.31327 5.62445 6.56204 5.62445C6.81082 5.62445 7.04941 5.72328 7.22533 5.89919L14.9995 13.6746L22.7738 5.89919C22.9497 5.72328 23.1883 5.62445 23.437 5.62445C23.6858 5.62445 23.9244 5.72328 24.1003 5.89919C24.2762 6.0751 24.3751 6.31369 24.3751 6.56247C24.3751 6.81125 24.2762 7.04984 24.1003 7.22575L16.3249 15L24.1003 22.7742Z" fill="white"/>
</g>
</svg>
