<svg width="11" height="13" viewBox="0 0 11 13" fill="none" xmlns="http://www.w3.org/2000/svg">
<path fill-rule="evenodd" clip-rule="evenodd" d="M5.49983 6.38375L9.03545 9.91938C9.15333 10.0332 9.31121 10.0962 9.47508 10.0948C9.63895 10.0934 9.79571 10.0276 9.91159 9.91176C10.0275 9.79588 10.0932 9.63912 10.0946 9.47525C10.096 9.31138 10.0331 9.1535 9.9192 9.03563L6.38358 5.5L9.9192 1.96438C10.0331 1.8465 10.096 1.68862 10.0946 1.52475C10.0932 1.36088 10.0275 1.20412 9.91159 1.08824C9.79571 0.97236 9.63895 0.90663 9.47508 0.905206C9.31121 0.903781 9.15333 0.966778 9.03545 1.08063L5.49983 4.61625L1.9642 1.08063C1.8458 0.969592 1.68884 0.90898 1.52653 0.911616C1.36423 0.914251 1.20932 0.979928 1.09458 1.09475C0.979845 1.20957 0.914278 1.36452 0.911758 1.52683C0.909237 1.68913 0.96996 1.84605 1.08108 1.96438L4.61608 5.5L1.08045 9.03563C1.02076 9.09328 0.973146 9.16225 0.94039 9.2385C0.907635 9.31475 0.890393 9.39676 0.889672 9.47975C0.888951 9.56274 0.904764 9.64504 0.93619 9.72185C0.967615 9.79866 1.01402 9.86844 1.07271 9.92712C1.13139 9.98581 1.20117 10.0322 1.27798 10.0636C1.35479 10.0951 1.43709 10.1109 1.52008 10.1102C1.60307 10.1094 1.68508 10.0922 1.76133 10.0594C1.83758 10.0267 1.90655 9.97907 1.9642 9.91938L5.49983 6.38375Z" fill="#D7D7D7"/>
</svg>
