<svg xmlns="http://www.w3.org/2000/svg" width="57" height="57" viewBox="0 0 57 57" fill="none">
  <g style="mix-blend-mode:exclusion">
    <rect width="57" height="57" fill="black"/>
    <path d="M45.7915 43.271C45.957 43.4365 46.0883 43.633 46.1778 43.8492C46.2674 44.0655 46.3135 44.2972 46.3135 44.5313C46.3135 44.7653 46.2674 44.9971 46.1778 45.2133C46.0883 45.4295 45.957 45.626 45.7915 45.7915C45.626 45.957 45.4295 46.0883 45.2133 46.1778C44.9971 46.2674 44.7653 46.3135 44.5313 46.3135C44.2972 46.3135 44.0655 46.2674 43.8492 46.1778C43.633 46.0883 43.4365 45.957 43.271 45.7915L28.5 31.0183L13.729 45.7915C13.3948 46.1257 12.9414 46.3135 12.4688 46.3135C11.9961 46.3135 11.5428 46.1257 11.2085 45.7915C10.8743 45.4573 10.6865 45.0039 10.6865 44.5313C10.6865 44.0586 10.8743 43.6053 11.2085 43.271L25.9818 28.5L11.2085 13.729C10.8743 13.3948 10.6865 12.9414 10.6865 12.4688C10.6865 11.9961 10.8743 11.5428 11.2085 11.2085C11.5428 10.8743 11.9961 10.6865 12.4688 10.6865C12.9414 10.6865 13.3948 10.8743 13.729 11.2085L28.5 25.9818L43.271 11.2085C43.6053 10.8743 44.0586 10.6865 44.5313 10.6865C45.0039 10.6865 45.4573 10.8743 45.7915 11.2085C46.1257 11.5428 46.3135 11.9961 46.3135 12.4688C46.3135 12.9414 46.1257 13.3948 45.7915 13.729L31.0183 28.5L45.7915 43.271Z" fill="white"/>
  </g>
</svg>