<svg xmlns="http://www.w3.org/2000/svg" width="17" height="19" viewBox="0 0 17 19" fill="none">
  <path d="M3.59118 16.2604C3.21618 16.2604 2.89527 16.1163 2.62845 15.8283C2.36163 15.5402 2.22799 15.1935 2.22754 14.7881V4.48242C2.22754 4.07756 2.36118 3.73109 2.62845 3.44302C2.89572 3.15495 3.21663 3.01067 3.59118 3.01018H8.04004C8.26731 3.01018 8.43777 3.08698 8.5514 3.24058C8.66504 3.39419 8.72186 3.56276 8.72186 3.7463C8.72186 3.93033 8.66231 4.09915 8.54322 4.25275C8.42413 4.40636 8.25072 4.48291 8.02299 4.48242H3.59118V14.7881H13.1366V9.98494C13.1366 9.73956 13.2078 9.55553 13.35 9.43285C13.4923 9.31016 13.6484 9.24882 13.8184 9.24882C13.9889 9.24882 14.1453 9.31016 14.2875 9.43285C14.4298 9.55553 14.5007 9.73956 14.5003 9.98494V14.7881C14.5003 15.193 14.3669 15.5397 14.1 15.8283C13.8332 16.1168 13.5121 16.2609 13.1366 16.2604H3.59118ZM6.31845 11.1075V9.32243C6.31845 9.12613 6.35254 8.93891 6.42072 8.76077C6.4889 8.58262 6.58549 8.42632 6.71049 8.29186L12.5741 1.9612C12.7105 1.81398 12.8639 1.70356 13.0344 1.62995C13.2048 1.55634 13.3753 1.51953 13.5457 1.51953C13.7275 1.51953 13.9009 1.55634 14.0659 1.62995C14.2309 1.70356 14.3814 1.81398 14.5173 1.9612L15.4719 3.01018C15.5969 3.1574 15.6934 3.32009 15.7616 3.49823C15.8298 3.67637 15.8639 3.85721 15.8639 4.04075C15.8639 4.22478 15.8328 4.40587 15.7705 4.58401C15.7082 4.76215 15.6087 4.92459 15.4719 5.07132L9.60822 11.402C9.48322 11.5369 9.33845 11.6444 9.1739 11.7244C9.00936 11.8044 8.83595 11.8441 8.65368 11.8436H7.00027C6.80708 11.8436 6.64527 11.773 6.51481 11.6316C6.38436 11.4903 6.3189 11.3156 6.31845 11.1075ZM7.68208 10.3714H8.63663L12.5912 6.10189L12.1139 5.58661L11.6196 5.07132L7.68208 9.32243V10.3714Z" fill="#4F4957"/>
</svg>