<svg width="10" height="10" viewBox="0 0 10 10" fill="none" xmlns="http://www.w3.org/2000/svg">
<path d="M5.5 10C4.8775 10 4.2925 9.8818 3.745 9.6454C3.1975 9.409 2.72125 9.08845 2.31625 8.68375C1.91125 8.27905 1.5907 7.8028 1.3546 7.255C1.1185 6.7072 1.0003 6.1222 1 5.5C0.999701 4.8778 1.1179 4.2928 1.3546 3.745C1.5913 3.1972 1.91185 2.72095 2.31625 2.31625C2.72065 1.91155 3.1969 1.591 3.745 1.3546C4.2931 1.1182 4.8781 1 5.5 1C6.1219 1 6.7069 1.1182 7.255 1.3546C7.8031 1.591 8.27935 1.91155 8.68375 2.31625C9.08815 2.72095 9.40884 3.1972 9.64584 3.745C9.88284 4.2928 10.0009 4.8778 9.99999 5.5C9.99909 6.1222 9.88089 6.7072 9.6454 7.255C9.40989 7.8028 9.08935 8.27905 8.68375 8.68375C8.27815 9.08845 7.8019 9.40915 7.255 9.64585C6.7081 9.88255 6.1231 10.0006 5.5 10ZM5.5 9.1C6.505 9.1 7.35625 8.75125 8.05375 8.05375C8.75124 7.35625 9.1 6.505 9.1 5.5C9.1 4.495 8.75124 3.64375 8.05375 2.94625C7.35625 2.24875 6.505 1.9 5.5 1.9C4.495 1.9 3.64375 2.24875 2.94625 2.94625C2.24875 3.64375 1.9 4.495 1.9 5.5C1.9 6.505 2.24875 7.35625 2.94625 8.05375C3.64375 8.75125 4.495 9.1 5.5 9.1Z" fill="#D7D7D7"/>
</svg>
