<svg width="25" height="25" viewBox="0 0 40 40" fill="none" xmlns="http://www.w3.org/2000/svg">
<path d="M20.0002 23.3334C18.6113 23.3334 17.4307 22.8473 16.4585 21.875C15.4863 20.9028 15.0002 19.7223 15.0002 18.3334V8.33337C15.0002 6.94449 15.4863 5.76393 16.4585 4.79171C17.4307 3.81949 18.6113 3.33337 20.0002 3.33337C21.3891 3.33337 22.5696 3.81949 23.5418 4.79171C24.5141 5.76393 25.0002 6.94449 25.0002 8.33337V18.3334C25.0002 19.7223 24.5141 20.9028 23.5418 21.875C22.5696 22.8473 21.3891 23.3334 20.0002 23.3334ZM18.3335 35V29.875C15.4446 29.4861 13.0557 28.1945 11.1668 26C9.27794 23.8056 8.3335 21.25 8.3335 18.3334H11.6668C11.6668 20.6389 12.4796 22.6045 14.1052 24.23C15.7307 25.8556 17.6957 26.6678 20.0002 26.6667C22.3057 26.6667 24.2713 25.8539 25.8968 24.2284C27.5224 22.6028 28.3346 20.6378 28.3335 18.3334H31.6668C31.6668 21.25 30.7224 23.8056 28.8335 26C26.9446 28.1945 24.5557 29.4861 21.6668 29.875V35H18.3335Z" fill="#E31F1F"/>
</svg>
