<svg width="22" height="22" viewBox="0 0 22 22" fill="none" xmlns="http://www.w3.org/2000/svg">
<path d="M8.53662 14.6017V7.39722C8.53677 7.30708 8.561 7.21864 8.60679 7.14116C8.65257 7.06369 8.71821 7.00004 8.79683 6.95687C8.87546 6.91371 8.96417 6.89262 9.05367 6.89583C9.14318 6.89903 9.23018 6.9264 9.30556 6.97508L14.8738 10.5763C14.9443 10.6218 15.0024 10.6844 15.0425 10.7583C15.0827 10.8323 15.1038 10.9152 15.1038 10.9995C15.1038 11.0838 15.0827 11.1667 15.0425 11.2406C15.0024 11.3146 14.9443 11.3772 14.8738 11.4226L9.30556 15.0249C9.23018 15.0736 9.14318 15.1009 9.05367 15.1041C8.96417 15.1073 8.87546 15.0863 8.79683 15.0431C8.71821 14.9999 8.65257 14.9363 8.60679 14.8588C8.561 14.7813 8.53677 14.6929 8.53662 14.6028V14.6017Z" fill="#DA4444"/>
<path d="M0 11C0 4.925 4.925 0 11 0C17.075 0 22 4.925 22 11C22 17.075 17.075 22 11 22C4.925 22 0 17.075 0 11ZM11 1.5C8.48044 1.5 6.06408 2.50089 4.28249 4.28249C2.50089 6.06408 1.5 8.48044 1.5 11C1.5 13.5196 2.50089 15.9359 4.28249 17.7175C6.06408 19.4991 8.48044 20.5 11 20.5C13.5196 20.5 15.9359 19.4991 17.7175 17.7175C19.4991 15.9359 20.5 13.5196 20.5 11C20.5 8.48044 19.4991 6.06408 17.7175 4.28249C15.9359 2.50089 13.5196 1.5 11 1.5Z" fill="#DA4444"/>
</svg>
