<svg width="68" height="30" viewBox="0 0 68 30" fill="none" xmlns="http://www.w3.org/2000/svg">
<path d="M32.5 21V10.005H35.935C38.17 10.005 39.775 10.815 39.775 13.095C39.775 15.3 38.17 16.35 35.935 16.35H33.895V21H32.5ZM33.895 15.225H35.74C37.45 15.225 38.395 14.52 38.395 13.095C38.395 11.655 37.45 11.145 35.74 11.145H33.895V15.225ZM38.545 21L35.665 15.975L36.745 15.255L40.105 21H38.545ZM42.0215 21V10.005H48.3515V11.175H43.4165V14.625H47.5715V15.81H43.4165V19.83H48.5165V21H42.0215ZM55.0095 21.21C52.2645 21.21 50.2245 19.08 50.2245 15.51C50.2245 11.97 52.3095 9.81 55.0995 9.81C56.4345 9.81 57.4695 10.455 58.1145 11.16L57.3495 12.06C56.7795 11.445 56.0445 11.025 55.1145 11.025C53.0295 11.025 51.6495 12.735 51.6495 15.48C51.6495 18.255 52.9695 19.98 55.0695 19.98C56.1045 19.98 56.9145 19.53 57.6195 18.75L58.3695 19.62C57.4995 20.64 56.4345 21.21 55.0095 21.21Z" fill="white"/>
<rect x="0.5" y="0.5" width="67" height="29" rx="14.5" stroke="white"/>
<circle cx="18.5" cy="15.5" r="8.5" fill="#FF0000"/>
</svg>
