<svg xmlns="http://www.w3.org/2000/svg" width="22" height="22" viewBox="0 0 22 22" fill="none">
  <path d="M21.2804 2.96959L19.0304 0.71959C18.8897 0.578986 18.699 0.5 18.5001 0.5C18.3013 0.5 18.1105 0.578986 17.9699 0.71959L13.6896 4.99984H11.8214C10.1111 5.00107 8.44343 5.5332 7.04855 6.52277C5.65366 7.51235 4.60038 8.91055 4.03413 10.5243L0.542127 20.5023C0.495455 20.6357 0.487377 20.7794 0.518824 20.9171C0.55027 21.0548 0.619962 21.1809 0.719878 21.2807C0.819794 21.3805 0.945871 21.4501 1.0836 21.4815C1.22132 21.5128 1.3651 21.5046 1.49838 21.4578L11.4756 17.9658C13.0894 17.3996 14.4876 16.3463 15.4772 14.9514C16.4668 13.5565 16.9989 11.8888 17.0001 10.1786V8.31109L21.2804 4.03009C21.421 3.88944 21.5 3.69871 21.5 3.49984C21.5 3.30097 21.421 3.11024 21.2804 2.96959ZM15.7199 7.46959C15.5792 7.61021 15.5002 7.80094 15.5001 7.99984V10.1786C15.4991 11.5779 15.0636 12.9423 14.2539 14.0836C13.4443 15.2248 12.3003 16.0866 10.9799 16.5498L4.10388 18.9566L11.0001 12.0603L9.93963 10.9998L3.04263 17.8961L5.45013 11.0201C5.9134 9.69971 6.77514 8.55571 7.91639 7.74603C9.05763 6.93634 10.4221 6.50091 11.8214 6.49984H14.0001C14.199 6.4998 14.3898 6.42075 14.5304 6.28009L18.5001 2.31034L19.6896 3.49984L15.7199 7.46959Z" fill="#4F4957"/>
</svg>